<?xml version="1.0" encoding="UTF-8" standalone="no"?>
<!-- Created with Inkscape (http://www.inkscape.org/) -->

<svg
   xmlns:dc="http://purl.org/dc/elements/1.1/"
   xmlns:cc="http://creativecommons.org/ns#"
   xmlns:rdf="http://www.w3.org/1999/02/22-rdf-syntax-ns#"
   xmlns:svg="http://www.w3.org/2000/svg"
   xmlns="http://www.w3.org/2000/svg"
   xmlns:sodipodi="http://sodipodi.sourceforge.net/DTD/sodipodi-0.dtd"
   xmlns:inkscape="http://www.inkscape.org/namespaces/inkscape"
   width="1429.4508mm"
   height="95.25mm"
   viewBox="0 0 1429.4508 95.25"
   version="1.1"
   id="svg4572"
   inkscape:version="0.92.4 (5da689c313, 2019-01-14)"
   sodipodi:docname="CreatedWithFCL_Banner_20231109a.svg">
  <defs
     id="defs4566" />
  <sodipodi:namedview
     id="base"
     pagecolor="#ffffff"
     bordercolor="#666666"
     borderopacity="1.0"
     inkscape:pageopacity="0.0"
     inkscape:pageshadow="2"
     inkscape:zoom="0.25"
     inkscape:cx="2560.8491"
     inkscape:cy="113.06233"
     inkscape:document-units="mm"
     inkscape:current-layer="layer1"
     showgrid="false"
     fit-margin-top="0"
     fit-margin-left="0"
     fit-margin-right="0"
     fit-margin-bottom="0"
     inkscape:window-width="2560"
     inkscape:window-height="1363"
     inkscape:window-x="-8"
     inkscape:window-y="-8"
     inkscape:window-maximized="1" />
  <metadata
     id="metadata4569">
    <rdf:RDF>
      <cc:Work
         rdf:about="">
        <dc:format>image/svg+xml</dc:format>
        <dc:type
           rdf:resource="http://purl.org/dc/dcmitype/StillImage" />
        <dc:title></dc:title>
      </cc:Work>
    </rdf:RDF>
  </metadata>
  <g
     inkscape:label="Layer 1"
     inkscape:groupmode="layer"
     id="layer1"
     transform="translate(-5.697182,-284.14881)">
    <g
       transform="matrix(0.26458333,0,0,0.26458333,1266.3073,-20.371552)"
       id="g1"
       inkscape:export-filename="CreatedWithFCL_Banner_20231109.png"
       inkscape:export-xdpi="20"
       inkscape:export-ydpi="20">
      <text
         xml:space="preserve"
         style="font-style:normal;font-weight:normal;font-size:314.35598755px;line-height:0px;font-family:sans-serif;letter-spacing:0px;word-spacing:0px;fill:#003869;fill-opacity:1;stroke:none;stroke-width:1"
         x="-4698.3687"
         y="1435.6501"
         id="text6"><tspan
           sodipodi:role="line"
           id="tspan6"
           x="-4698.3687"
           y="1435.6501"
           style="font-style:normal;font-variant:normal;font-weight:normal;font-stretch:normal;font-size:314.35598755px;font-family:Arial;-inkscape-font-specification:Arial;fill:#003869;fill-opacity:1;stroke-width:1"><tspan
   style="fill:#000000"
   id="tspan8">Created with</tspan> FoodChain-Lab <tspan
   style="fill:#000000"
   id="tspan7">by</tspan></tspan></text>
      <rect
         y="1150.9431"
         x="-4764.5107"
         height="360"
         width="5402.6489"
         id="rect1"
         style="fill:#ffffff;fill-opacity:0;stroke:none;stroke-width:0.99999702" />
      <g
         id="g6"
         transform="matrix(0.75608815,0,0,0.75608815,-178.85643,1206.9329)"
         style="stroke-width:1.32260001">
        <g
           id="g3"
           inkscape:export-filename="N:\BfR_Logo_de_RGB_white1.png"
           inkscape:export-xdpi="21.959999"
           inkscape:export-ydpi="21.959999"
           style="stroke-width:1.32260001">
          <path
             inkscape:connector-curvature="0"
             class="st0"
             d="M 395.349,302.326 V 33.59 h 94.13 c 32.606,0 57.337,6.25 74.197,18.738 16.856,12.489 25.286,30.793 25.286,54.909 0,13.167 -3.385,24.764 -10.151,34.791 -6.768,10.03 -16.181,17.381 -28.239,22.055 13.779,3.446 24.64,10.399 32.577,20.856 7.935,10.46 11.904,23.257 11.904,38.391 0,25.839 -8.246,45.404 -24.733,58.693 -16.489,13.288 -39.99,20.058 -70.504,20.302 H 395.349 Z m 55.37,-156.145 h 40.976 c 27.93,-0.491 41.897,-11.628 41.897,-33.408 0,-12.181 -3.539,-20.948 -10.613,-26.3 -7.077,-5.352 -18.244,-8.029 -33.499,-8.029 h -38.76 v 67.737 z m 0,39.129 v 72.535 h 47.434 c 13.041,0 23.224,-3.106 30.546,-9.32 7.32,-6.212 10.982,-14.795 10.982,-25.748 0,-24.608 -12.735,-37.098 -38.206,-37.467 z m 200.444,117.016 -10e-4,-152.272 h -29.715 v -39.129 h 29.715 v -16.98 c 0,-22.394 6.428,-39.774 19.287,-52.141 12.856,-12.367 30.852,-18.548 53.986,-18.548 7.383,0 16.426,1.23 27.133,3.691 l -0.554,41.343 c -4.43,-1.106 -9.847,-1.66 -16.242,-1.66 -20.057,0 -30.084,9.412 -30.084,28.239 v 16.057 h 42.703 v 39.129 H 704.688 V 302.327 H 651.163 Z M 890.181,203.95 h -44.112 v 98.376 h -55.37 V 33.59 h 99.851 c 31.746,0 56.231,7.08 73.459,21.229 17.225,14.151 25.839,34.145 25.839,59.985 0,18.336 -3.968,33.623 -11.904,45.866 -7.937,12.244 -19.965,21.994 -36.084,29.253 L 1000,299.741 v 2.585 H 940.568 Z M 846.068,159.1 h 44.666 c 13.903,0 24.669,-3.534 32.3,-10.611 7.628,-7.075 11.442,-16.825 11.442,-29.255 0,-12.673 -3.599,-22.638 -10.797,-29.901 -7.198,-7.259 -18.244,-10.888 -33.131,-10.888 H 846.067 V 159.1 Z"
             id="path3"
             style="fill:#003869;stroke-width:1.32260001" />
        </g>
        <g
           id="g5"
           inkscape:export-filename="N:\BfR_Logo_de_RGB_white1.png"
           inkscape:export-xdpi="21.959999"
           inkscape:export-ydpi="21.959999"
           style="stroke-width:1.32260001">
          <rect
             class="st0"
             width="255.814"
             height="255.814"
             id="rect3"
             style="fill:#003869;stroke-width:1.32260001"
             x="0"
             y="0" />
          <path
             inkscape:connector-curvature="0"
             class="st1"
             d="m 46.511,302.326 c 0,0 7.185,-91.155 88.096,-176.154 C 216.564,40.076 302.326,33.59 302.326,33.59 v 268.736 z"
             id="path4"
             style="fill:#bad8e9;stroke-width:1.32260001" />
          <path
             inkscape:connector-curvature="0"
             class="st0"
             d="m 228.448,274.597 -0.179,-0.355 c -11.007,-21.915 -17.127,-44.445 -18.711,-68.879 -1.023,-15.782 0.243,-31.478 3.761,-46.65 l 0.75,-3.646 0.353,-0.087 c 13.762,-3.385 28.897,-2.763 46.27,1.906 4.411,1.187 8.845,2.669 13.182,4.408 l 0.722,0.289 -2.594,3.712 -1.213,0.227 -35.946,-0.208 c 0.002,0.002 -3.454,0.227 -5.11,1.619 -1.239,1.039 -2.618,2.464 -3.454,5.166 -3.385,10.956 -2.748,20.779 -2.011,32.154 1.295,19.969 7.466,50.924 16.35,68.967 l 0.453,0.918 -6.675,-0.069 z m -47.585,0 0.179,-0.355 c 11.005,-21.912 17.125,-44.443 18.711,-68.879 1.024,-15.781 -0.241,-31.476 -3.758,-46.635 l -0.752,-3.661 -0.355,-0.087 c -13.763,-3.385 -28.897,-2.763 -46.269,1.906 -4.418,1.189 -8.853,2.673 -13.184,4.408 l -0.721,0.288 2.592,3.712 1.315,0.236 35.808,-0.218 c 0.035,0.002 3.488,0.227 5.146,1.619 1.239,1.039 2.618,2.466 3.452,5.166 3.387,10.954 2.75,20.779 2.013,32.154 -1.295,19.969 -7.466,50.924 -16.35,68.967 l -0.453,0.918 6.622,-0.072 z M 204.656,106.69 c -8.115,0 -14.693,7.094 -14.693,15.845 0,8.751 6.578,15.845 14.693,15.845 8.115,0 14.693,-7.094 14.693,-15.845 0,-8.751 -6.578,-15.845 -14.693,-15.845 z"
             id="path5"
             style="fill:#003869;stroke-width:1.32260001" />
        </g>
      </g>
    </g>
  </g>
</svg>
