<?xml version="1.0" encoding="UTF-8" standalone="no"?>
<svg
   viewBox="0 0 600 600"
   version="1.1"
   id="svg22"
   sodipodi:docname="fcl_logo_soft_transparent.svg"
   inkscape:version="1.3.2 (091e20e, 2023-11-25, custom)"
   xmlns:inkscape="http://www.inkscape.org/namespaces/inkscape"
   xmlns:sodipodi="http://sodipodi.sourceforge.net/DTD/sodipodi-0.dtd"
   xmlns="http://www.w3.org/2000/svg"
   xmlns:svg="http://www.w3.org/2000/svg">
  <sodipodi:namedview
     id="namedview22"
     pagecolor="#505050"
     bordercolor="#eeeeee"
     borderopacity="1"
     inkscape:showpageshadow="0"
     inkscape:pageopacity="0"
     inkscape:pagecheckerboard="0"
     inkscape:deskcolor="#505050"
     inkscape:zoom="0.95812969"
     inkscape:cx="229.09216"
     inkscape:cy="331.37476"
     inkscape:window-width="1920"
     inkscape:window-height="1009"
     inkscape:window-x="-8"
     inkscape:window-y="1072"
     inkscape:window-maximized="1"
     inkscape:current-layer="svg22"
     showborder="false" />
  <defs
     id="defs1">
    <marker
       orient="auto"
       refY="0"
       refX="0"
       id="a"
       style="overflow:visible">
      <path
         style="font-size:12px;fill-rule:evenodd;stroke-width:.625;stroke-linejoin:round"
         d="M8.719 4.034-2.207.016 8.719-4.002c-1.746 2.372-1.736 5.618 0 8.036z"
         transform="matrix(-1.1 0 0 -1.1 -1.1 0)"
         id="path1" />
    </marker>
  </defs>
  <g
     style="stroke:#999;stroke-opacity:1"
     id="g3">
    <path
       d="M647.555 124.342 509.52 157.015"
       style="fill:none;stroke:#999;stroke-width:4;stroke-linecap:butt;stroke-linejoin:miter;stroke-miterlimit:4;stroke-opacity:1;stroke-dasharray:none;marker-start:none;marker-end:url(#a)"
       transform="translate(-397.411 286.159)"
       id="path3" />
  </g>
  <path
     style="fill:#999;fill-opacity:1;stroke:none;stroke-width:1px;stroke-linecap:butt;stroke-linejoin:miter;stroke-opacity:1"
     d="m106.978 444.314 50.519 6.247c-8.893-9.59-13.083-21.035-8.008-34.196zM271.215 388.447l45.142-23.526c-12.765-2.85-22.71-9.896-26-23.612z"
     id="path4" />
  <text
     xml:space="preserve"
     style="font-size:8px;font-style:normal;font-weight:400;line-height:125%;letter-spacing:0;word-spacing:0;fill:#85a1c2;fill-opacity:1;stroke:none;font-family:Sans"
     x="61.965"
     y="153.667"
     id="text4"><tspan
       x="61.965"
       y="153.667"
       style="font-size:120px;font-style:normal;font-variant:normal;font-weight:400;font-stretch:normal;fill:#85a1c2;fill-opacity:1;font-family:Arial;-inkscape-font-specification:Arial"
       id="tspan4">Food</tspan></text>
  <text
     xml:space="preserve"
     style="font-size:48px;font-style:normal;font-weight:400;line-height:125%;letter-spacing:0;word-spacing:0;fill:#85a1c2;fill-opacity:1;stroke:none;font-family:Sans"
     x="415.355"
     y="583.301"
     id="text6"><tspan
       x="415.355"
       y="583.301"
       style="font-size:40px;font-style:normal;font-variant:normal;font-weight:400;font-stretch:normal;text-align:center;text-anchor:middle;fill:#85a1c2;fill-opacity:1;font-family:Arial;-inkscape-font-specification:Arial"
       id="tspan6">Created by <tspan
   style="font-size:40px;font-weight:700;text-align:center;text-anchor:middle;-inkscape-font-specification:Arial Bold;fill:#85a1c2;fill-opacity:1"
   id="tspan5">BfR</tspan></tspan></text>
  <path
     transform="matrix(.68293 0 0 .68293 300.923 -163.172)"
     d="M199.847 365.68a59.454 59.454 0 1 1-118.909 0 59.454 59.454 0 1 1 118.909 0z"
     style="fill:#f2f2f2;fill-opacity:1;fill-rule:nonzero;stroke:#999;stroke-width:4;stroke-miterlimit:4;stroke-opacity:1;stroke-dasharray:none"
     id="path6" />
  <path
     style="fill:none;stroke:#999;stroke-width:10;stroke-linecap:butt;stroke-linejoin:miter;stroke-miterlimit:4;stroke-opacity:1;stroke-dasharray:none"
     d="m330.747 323.212-36.473 41.219"
     id="path7" />
  <path
     style="fill:#f2f2f2;fill-opacity:1;fill-rule:nonzero;stroke:#999;stroke-width:4;stroke-miterlimit:4;stroke-opacity:1;stroke-dasharray:none"
     d="M199.847 365.68a59.454 59.454 0 1 1-118.909 0 59.454 59.454 0 1 1 118.909 0z"
     transform="matrix(.68293 0 0 .68293 259.066 46.348)"
     id="path8" />
  <text
     xml:space="preserve"
     style="font-size:8px;font-style:normal;font-weight:400;line-height:125%;letter-spacing:0;word-spacing:0;fill:#85a1c2;fill-opacity:1;stroke:none;font-family:Sans"
     x="167.825"
     y="325.465"
     id="text8"><tspan
       x="167.825"
       y="325.465"
       style="font-size:120px;font-style:normal;font-variant:normal;font-weight:400;font-stretch:normal;fill:#85a1c2;fill-opacity:1;font-family:Arial;-inkscape-font-specification:Arial"
       id="tspan8">Chain</tspan></text>
  <path
     style="fill:#f2f2f2;fill-opacity:1;fill-rule:nonzero;stroke:#999;stroke-width:4;stroke-miterlimit:4;stroke-opacity:1;stroke-dasharray:none"
     d="M199.847 365.68a59.454 59.454 0 1 1-118.909 0 59.454 59.454 0 1 1 118.909 0z"
     transform="matrix(.48782 0 0 .48782 135.153 346.652)"
     id="path9" />
  <text
     xml:space="preserve"
     style="font-size:8px;font-style:normal;font-weight:400;line-height:125%;letter-spacing:0;word-spacing:0;fill:#85a1c2;fill-opacity:1;stroke:none;font-family:Sans"
     x="332.551"
     y="510.123"
     id="text9"><tspan
       x="332.551"
       y="510.123"
       style="font-size:120px;font-style:normal;font-variant:normal;font-weight:400;font-stretch:normal;fill:#85a1c2;fill-opacity:1;font-family:Arial;-inkscape-font-specification:Arial"
       id="tspan9">Lab</tspan></text>
  <path
     transform="matrix(.48782 0 0 .48782 433.906 208.185)"
     d="M199.847 365.68a59.454 59.454 0 1 1-118.909 0 59.454 59.454 0 1 1 118.909 0z"
     style="fill:#f2f2f2;fill-opacity:1;fill-rule:nonzero;stroke:#999;stroke-width:4;stroke-miterlimit:4;stroke-opacity:1;stroke-dasharray:none"
     id="path10" />
  <path
     transform="matrix(.48782 0 0 .48782 42.43 346.652)"
     d="M199.847 365.68a59.454 59.454 0 1 1-118.909 0 59.454 59.454 0 1 1 118.909 0z"
     style="fill:#f2f2f2;fill-opacity:1;fill-rule:nonzero;stroke:#999;stroke-width:4;stroke-miterlimit:4;stroke-opacity:1;stroke-dasharray:none"
     id="path11" />
  <path
     transform="matrix(.48782 0 0 .48782 6.482 272.558)"
     d="M199.847 365.68a59.454 59.454 0 1 1-118.909 0 59.454 59.454 0 1 1 118.909 0z"
     style="fill:#f2f2f2;fill-opacity:1;fill-rule:nonzero;stroke:#999;stroke-width:4;stroke-miterlimit:4;stroke-opacity:1;stroke-dasharray:none"
     id="path12" />
  <path
     d="m231.323 403.15-93.429-51.46"
     style="fill:none;stroke:#999;stroke-width:6;stroke-linecap:butt;stroke-linejoin:miter;stroke-miterlimit:4;stroke-opacity:1;stroke-dasharray:none"
     id="path13" />
  <path
     style="fill:#f2f2f2;fill-opacity:1;fill-rule:nonzero;stroke:#999;stroke-width:4;stroke-miterlimit:4;stroke-opacity:1;stroke-dasharray:none"
     d="M199.847 365.68a59.454 59.454 0 1 1-118.909 0 59.454 59.454 0 1 1 118.909 0z"
     transform="matrix(.48782 0 0 .48782 180.249 236.447)"
     id="path14" />
  <path
     style="fill:#ccc;fill-opacity:1;fill-rule:nonzero;stroke:#999;stroke-width:4;stroke-miterlimit:4;stroke-opacity:1;stroke-dasharray:none"
     d="M199.847 365.68a59.454 59.454 0 1 1-118.909 0 59.454 59.454 0 1 1 118.909 0z"
     transform="matrix(.48782 0 0 .48782 455.84 -29.998)"
     id="path15" />
  <path
     transform="matrix(.48782 0 0 .48782 7.365 143.7)"
     d="M199.847 365.68a59.454 59.454 0 1 1-118.909 0 59.454 59.454 0 1 1 118.909 0z"
     style="fill:#ccc;fill-opacity:1;fill-rule:nonzero;stroke:#999;stroke-width:4;stroke-miterlimit:4;stroke-opacity:1;stroke-dasharray:none"
     id="path16" />
  <path
     style="fill:#999;fill-opacity:1;stroke:#999;stroke-width:4;stroke-linecap:butt;stroke-linejoin:miter;stroke-miterlimit:4;stroke-dasharray:none;stroke-opacity:1"
     d="m379.838 169.587-16.553 85.42M224.303 429.367l-61.246 47.262M459.451 117.134l-26.095-13.592M236.647 441.016l-6.951 15.82"
     id="path17" />
  <path
     style="fill:#999;fill-opacity:1;stroke:#999;stroke-width:6;stroke-linecap:butt;stroke-linejoin:miter;stroke-miterlimit:4;stroke-dasharray:none;stroke-opacity:1"
     d="m140.297 353 84.487 46.559"
     id="path18" />
  <path
     style="fill:#999;fill-opacity:1;stroke:#999;stroke-width:4;stroke-linecap:butt;stroke-linejoin:miter;stroke-miterlimit:4;stroke-dasharray:none;stroke-opacity:1"
     d="m437.057 355.347-50.089-33.74"
     id="path19" />
  <path
     style="fill:#999;fill-opacity:1;stroke:none;stroke-width:1px;stroke-linecap:butt;stroke-linejoin:miter;stroke-opacity:1"
     d="m213.392 494.773 35.103-36.864c-13 1.433-24.69-2.017-32.24-13.93zM132.252 500.858l48.45-15.614c-12.105-4.952-20.725-13.567-21.666-27.641zM105.244 334.858l33.454 38.367c-.223-13.077 4.295-24.396 16.857-30.811zM470.6 378.317l-29.346-41.593c-1.119 13.03-6.773 23.827-19.926 28.92zM387.825 129.253l-26.4 43.524c12.393-4.183 24.55-3.315 34.475 6.707z"
     id="path20" />
  <path
     style="fill:#999;fill-opacity:1;stroke:#999;stroke-width:4;stroke-linecap:butt;stroke-linejoin:miter;stroke-miterlimit:4;stroke-dasharray:none;stroke-opacity:1"
     d="M219.183 417.768 146.82 434.99"
     id="path21" />
  <path
     style="fill:#999;fill-opacity:1;stroke:none;stroke-width:1px;stroke-linecap:butt;stroke-linejoin:miter;stroke-opacity:1"
     d="m495.214 135.749-34.092-37.801c.442 13.071-3.886 24.464-16.34 31.089z"
     id="path22" />
</svg>
